HIERARCHY
ROOT Hips
{
	OFFSET 0.000000 71.427986 0.000000
	CHANNELS 6 Xposition Yposition Zposition Xrotation Yrotation Zrotation
	JOINT Pelvis
	{
		OFFSET 0.000000 0.000000 0.000000
		CHANNELS 3 Xrotation Yrotation Zrotation
		JOINT LeftUpLeg
		{
			OFFSET 6.797100 -2.508499 -1.318700
			CHANNELS 3 Xrotation Yrotation Zrotation
			JOINT LeftLeg
			{
				OFFSET 0.069008 -29.241863 0.690200
				CHANNELS 3 Xrotation Yrotation Zrotation
				JOINT LeftFoot
				{
					OFFSET -0.069008 -29.568123 -0.266800
					CHANNELS 3 Xrotation Yrotation Zrotation
					JOINT LeftToeBase
					{
						OFFSET 3.145500 -8.631000 16.059900
						CHANNELS 3 Xrotation Yrotation Zrotation
						End Site
						{
							OFFSET 0.000000 18.501587 0.000000
						}
					}
				}
			}
			JOINT Left_ShortSleeve
			{
				OFFSET 0.265923 -10.480953 1.153800
				CHANNELS 3 Xrotation Yrotation Zrotation
				End Site
				{
					OFFSET 1.725763 19.823879 0.000000
				}
			}
		}
		JOINT RightUpLeg
		{
			OFFSET -6.797100 -2.508499 -1.318700
			CHANNELS 3 Xrotation Yrotation Zrotation
			JOINT RightLeg
			{
				OFFSET -0.082453 -29.241932 0.688000
				CHANNELS 3 Xrotation Yrotation Zrotation
				JOINT RightFoot
				{
					OFFSET 0.082453 -29.568058 -0.264600
					CHANNELS 3 Xrotation Yrotation Zrotation
					JOINT RightToeBase
					{
						OFFSET -3.115300 -8.682800 16.113400
						CHANNELS 3 Xrotation Yrotation Zrotation
						End Site
						{
							OFFSET 0.000000 18.567114 0.000000
						}
					}
				}
			}
			JOINT Right_ShortSleeve
			{
				OFFSET -0.265923 -10.480953 1.153800
				CHANNELS 3 Xrotation Yrotation Zrotation
				End Site
				{
					OFFSET -1.725766 19.823910 0.000000
				}
			}
		}
	}
	JOINT Spine
	{
		OFFSET 0.000000 13.368103 0.470500
		CHANNELS 3 Xrotation Yrotation Zrotation
		JOINT Spine1
		{
			OFFSET 0.147000 13.837402 0.538800
			CHANNELS 3 Xrotation Yrotation Zrotation
			JOINT Spine2
			{
				OFFSET 0.168000 16.242897 -1.435500
				CHANNELS 3 Xrotation Yrotation Zrotation
				JOINT Neck
				{
					OFFSET 0.217200 18.631500 -1.679100
					CHANNELS 3 Xrotation Yrotation Zrotation
					JOINT Head
					{
						OFFSET 0.000000 6.599396 1.385900
						CHANNELS 3 Xrotation Yrotation Zrotation
						JOINT Hat
						{
							OFFSET -0.532200 27.220596 -10.096100
							CHANNELS 3 Xrotation Yrotation Zrotation
							End Site
							{
								OFFSET 0.000000 22.029861 0.000000
							}
						}
						JOINT HairD
						{
							OFFSET -10.777400 17.437393 -1.325900
							CHANNELS 3 Xrotation Yrotation Zrotation
							JOINT HairD1
							{
								OFFSET -3.290299 -11.051193 1.062200
								CHANNELS 3 Xrotation Yrotation Zrotation
								End Site
								{
									OFFSET 0.000000 11.579437 0.000000
								}
							}
						}
						JOINT HairB
						{
							OFFSET -10.777400 17.437393 1.467900
							CHANNELS 3 Xrotation Yrotation Zrotation
							JOINT HairB1
							{
								OFFSET -1.561200 -12.956299 3.590200
								CHANNELS 3 Xrotation Yrotation Zrotation
								End Site
								{
									OFFSET 0.000000 13.534866 0.000000
								}
							}
						}
						JOINT HairA
						{
							OFFSET 9.713100 17.437393 1.467900
							CHANNELS 3 Xrotation Yrotation Zrotation
							JOINT HairA1
							{
								OFFSET 1.561200 -12.956299 3.590200
								CHANNELS 3 Xrotation Yrotation Zrotation
								End Site
								{
									OFFSET 0.000000 13.534866 0.000000
								}
							}
						}
						JOINT HairC
						{
							OFFSET 9.713100 17.437393 -1.325900
							CHANNELS 3 Xrotation Yrotation Zrotation
							JOINT HairC1
							{
								OFFSET 3.290300 -11.051193 1.062200
								CHANNELS 3 Xrotation Yrotation Zrotation
								End Site
								{
									OFFSET 0.000000 11.579437 0.000000
								}
							}
						}
					}
				}
				JOINT LeftShoulder
				{
					OFFSET 5.101800 15.108002 -2.763700
					CHANNELS 3 Xrotation Yrotation Zrotation
					JOINT LeftArm
					{
						OFFSET 9.825497 2.506317 -1.597400
						CHANNELS 3 Xrotation Yrotation Zrotation
						JOINT LeftForeArm
						{
							OFFSET 21.966244 0.000000 0.000000
							CHANNELS 3 Xrotation Yrotation Zrotation
							JOINT LeftHand
							{
								OFFSET 33.879036 0.000000 0.000000
								CHANNELS 3 Xrotation Yrotation Zrotation
								JOINT LeftHandThumb1
								{
									OFFSET 6.715286 -2.359680 3.363841
									CHANNELS 3 Xrotation Yrotation Zrotation
									JOINT LeftHandThumb2
									{
										OFFSET 2.507072 -1.447464 1.447461
										CHANNELS 3 Xrotation Yrotation Zrotation
										JOINT LeftHandThumb3
										{
											OFFSET 2.898338 -1.673355 1.673357
											CHANNELS 3 Xrotation Yrotation Zrotation
											End Site
											{
												OFFSET -0.295959 3.727692 -0.131651
											}
										}
									}
								}
								JOINT LeftHandIndex1
								{
									OFFSET 14.190811 -0.254547 3.840278
									CHANNELS 3 Xrotation Yrotation Zrotation
									JOINT LeftHandIndex2
									{
										OFFSET 3.551727 0.000000 -0.000000
										CHANNELS 3 Xrotation Yrotation Zrotation
										JOINT LeftHandIndex3
										{
											OFFSET 2.894196 0.000000 0.000000
											CHANNELS 3 Xrotation Yrotation Zrotation
											End Site
											{
												OFFSET -1.000603 2.690872 0.366626
											}
										}
									}
								}
								JOINT LeftHandMiddle1
								{
									OFFSET 13.776489 0.000000 0.000000
									CHANNELS 3 Xrotation Yrotation Zrotation
									JOINT LeftHandMiddle2
									{
										OFFSET 3.438232 0.000000 0.000000
										CHANNELS 3 Xrotation Yrotation Zrotation
										JOINT LeftHandMiddle3
										{
											OFFSET 3.691551 0.000000 0.000000
											CHANNELS 3 Xrotation Yrotation Zrotation
											End Site
											{
												OFFSET -1.082298 3.499527 0.457670
											}
										}
									}
								}
								JOINT LeftHandRing1
								{
									OFFSET 13.966164 -0.268127 -3.067488
									CHANNELS 3 Xrotation Yrotation Zrotation
									JOINT LeftHandRing2
									{
										OFFSET 3.162567 0.000000 0.000000
										CHANNELS 3 Xrotation Yrotation Zrotation
										JOINT LeftHandRing3
										{
											OFFSET 3.324348 0.000000 0.000000
											CHANNELS 3 Xrotation Yrotation Zrotation
											End Site
											{
												OFFSET -0.861900 3.184998 0.405154
											}
										}
									}
								}
								JOINT LeftHandPinky1
								{
									OFFSET 13.131393 -0.168503 -5.746925
									CHANNELS 3 Xrotation Yrotation Zrotation
									JOINT LeftHandPinky2
									{
										OFFSET 2.849182 0.000000 0.000000
										CHANNELS 3 Xrotation Yrotation Zrotation
										JOINT LeftHandPinky3
										{
											OFFSET 2.805038 0.000000 0.000000
											CHANNELS 3 Xrotation Yrotation Zrotation
											End Site
											{
												OFFSET -0.882500 2.642609 0.325652
											}
										}
									}
								}
							}
							JOINT Left_Sleeve
							{
								OFFSET 6.592125 -0.646545 0.805568
								CHANNELS 3 Xrotation Yrotation Zrotation
								End Site
								{
									OFFSET -0.000179 20.275787 -0.000000
								}
							}
						}
					}
				}
				JOINT RightShoulder
				{
					OFFSET -5.731700 15.108002 -2.763700
					CHANNELS 3 Xrotation Yrotation Zrotation
					JOINT RightArm
					{
						OFFSET -9.825497 2.506317 -1.597400
						CHANNELS 3 Xrotation Yrotation Zrotation
						JOINT RightForeArm
						{
							OFFSET -21.966242 0.000000 0.000000
							CHANNELS 3 Xrotation Yrotation Zrotation
							JOINT RightHand
							{
								OFFSET -33.879032 0.000000 0.000000
								CHANNELS 3 Xrotation Yrotation Zrotation
								JOINT RightHandThumb1
								{
									OFFSET -6.715286 -2.359680 3.363841
									CHANNELS 3 Xrotation Yrotation Zrotation
									JOINT RightHandThumb2
									{
										OFFSET -2.507072 -1.447464 1.447461
										CHANNELS 3 Xrotation Yrotation Zrotation
										JOINT RightHandThumb3
										{
											OFFSET -2.898338 -1.673355 1.673357
											CHANNELS 3 Xrotation Yrotation Zrotation
											End Site
											{
												OFFSET 0.295959 3.727692 -0.131651
											}
										}
									}
								}
								JOINT RightHandIndex1
								{
									OFFSET -14.190811 -0.254547 3.840278
									CHANNELS 3 Xrotation Yrotation Zrotation
									JOINT RightHandIndex2
									{
										OFFSET -3.551727 0.000000 -0.000000
										CHANNELS 3 Xrotation Yrotation Zrotation
										JOINT RightHandIndex3
										{
											OFFSET -2.894196 0.000000 0.000000
											CHANNELS 3 Xrotation Yrotation Zrotation
											End Site
											{
												OFFSET 1.000603 2.690872 0.366626
											}
										}
									}
								}
								JOINT RightHandMiddle1
								{
									OFFSET -13.776489 0.000000 0.000000
									CHANNELS 3 Xrotation Yrotation Zrotation
									JOINT RightHandMiddle2
									{
										OFFSET -3.438232 0.000000 0.000000
										CHANNELS 3 Xrotation Yrotation Zrotation
										JOINT RightHandMiddle3
										{
											OFFSET -3.691551 0.000000 0.000000
											CHANNELS 3 Xrotation Yrotation Zrotation
											End Site
											{
												OFFSET 1.082298 3.499527 0.457670
											}
										}
									}
								}
								JOINT RightHandRing1
								{
									OFFSET -13.966164 -0.268127 -3.067488
									CHANNELS 3 Xrotation Yrotation Zrotation
									JOINT RightHandRing2
									{
										OFFSET -3.162567 0.000000 0.000000
										CHANNELS 3 Xrotation Yrotation Zrotation
										JOINT RightHandRing3
										{
											OFFSET -3.324348 0.000000 0.000000
											CHANNELS 3 Xrotation Yrotation Zrotation
											End Site
											{
												OFFSET 0.861900 3.184998 0.405154
											}
										}
									}
								}
								JOINT RightHandPinky1
								{
									OFFSET -13.131393 -0.168503 -5.746925
									CHANNELS 3 Xrotation Yrotation Zrotation
									JOINT RightHandPinky2
									{
										OFFSET -2.849182 0.000000 0.000000
										CHANNELS 3 Xrotation Yrotation Zrotation
										JOINT RightHandPinky3
										{
											OFFSET -2.805038 0.000000 0.000000
											CHANNELS 3 Xrotation Yrotation Zrotation
											End Site
											{
												OFFSET 0.882500 2.642609 0.325652
											}
										}
									}
								}
							}
							JOINT Right_Sleeve
							{
								OFFSET -6.592125 -0.646545 0.805568
								CHANNELS 3 Xrotation Yrotation Zrotation
								End Site
								{
									OFFSET 0.000179 20.275787 -0.000000
								}
							}
						}
					}
				}
				JOINT Bind_Right_JacketString
				{
					OFFSET -3.534800 11.969597 7.200700
					CHANNELS 3 Xrotation Yrotation Zrotation
					JOINT Bind_Right_JacketString1
					{
						OFFSET -0.319900 -6.102600 2.794100
						CHANNELS 3 Xrotation Yrotation Zrotation
						End Site
						{
							OFFSET 0.000000 6.719452 0.000000
						}
					}
				}
				JOINT Bind_Left_JacketString
				{
					OFFSET 2.904800 11.969597 7.200700
					CHANNELS 3 Xrotation Yrotation Zrotation
					JOINT Bind_Left_JacketString1
					{
						OFFSET 0.364800 -5.904503 3.186800
						CHANNELS 3 Xrotation Yrotation Zrotation
						End Site
						{
							OFFSET 0.000000 6.719513 0.000000
						}
					}
				}
				JOINT HairE
				{
					OFFSET 5.915200 17.612701 -11.592200
					CHANNELS 3 Xrotation Yrotation Zrotation
					JOINT HairE1
					{
						OFFSET 0.289200 -7.171898 -1.284500
						CHANNELS 3 Xrotation Yrotation Zrotation
						End Site
						{
							OFFSET 0.000000 7.291756 0.000000
						}
					}
				}
				JOINT HairF
				{
					OFFSET -0.864800 17.612701 -11.592200
					CHANNELS 3 Xrotation Yrotation Zrotation
					JOINT HairF1
					{
						OFFSET 0.000000 -14.087097 -2.127501
						CHANNELS 3 Xrotation Yrotation Zrotation
						End Site
						{
							OFFSET 0.000000 14.246841 0.000000
						}
					}
				}
				JOINT HairG
				{
					OFFSET -8.087700 17.612701 -11.592200
					CHANNELS 3 Xrotation Yrotation Zrotation
					JOINT HairG1
					{
						OFFSET -0.293600 -6.081398 -0.910100
						CHANNELS 3 Xrotation Yrotation Zrotation
						End Site
						{
							OFFSET 0.000000 6.156120 0.000000
						}
					}
				}
			}
		}
	}
	JOINT Pouch
	{
		OFFSET 0.000000 4.394501 10.847300
		CHANNELS 3 Xrotation Yrotation Zrotation
		End Site
		{
			OFFSET 0.000000 21.880577 0.000000
		}
	}
	JOINT Bag
	{
		OFFSET -13.229000 4.813004 -0.593300
		CHANNELS 3 Xrotation Yrotation Zrotation
		End Site
		{
			OFFSET 0.000000 21.880577 0.000000
		}
	}
	JOINT OccupyGuyFacialAnim_Joint
	{
		OFFSET 1.000000 -70.206398 -1.655000
		CHANNELS 3 Xrotation Yrotation Zrotation
		End Site
		{
			OFFSET 0.000000 21.880577 0.000000
		}
	}
}
MOTION
Frames: 5
Frame Time: 0.033333
-0.035178 70.332825 0.122330 2.912482 -28.986172 1.187721 -0.000000 -0.000001 0.000000 -14.991222 18.711872 9.351094 17.125659 13.218506 -0.902345 -4.454768 -4.009223 -5.087383 0.000000 0.000000 -0.000000 -0.000001 0.000000 -0.000000 -5.458789 -1.941013 -9.228067 10.920872 9.734357 0.790858 -8.846400 -1.020096 7.095367 0.000000 -0.000001 -0.000000 -0.000000 0.000001 0.000000 7.835993 -0.366758 -2.679094 1.099250 -0.880567 2.383462 1.108682 -0.590429 2.446366 -3.842550 18.019202 -6.496369 -6.332087 13.021430 0.301611 0.000000 -0.000000 -0.000000 0.000000 -0.000000 -0.000000 0.000000 -0.000000 -0.000000 0.000000 -0.000000 -0.000000 0.000000 0.000000 -0.000000 0.000000 -0.000000 -0.000000 0.000000 0.000000 -0.000000 0.000000 -0.000000 -0.000000 0.000000 -0.000000 -0.000000 -0.057392 -8.759409 -0.061008 -55.250794 0.329399 -41.449362 11.584242 -65.827294 13.005391 -50.191061 12.352930 4.610860 17.545743 -5.697633 -12.936016 10.850474 26.127707 8.644814 0.000002 0.000001 0.000002 13.977993 1.201859 -55.004350 0.369661 1.166348 -65.441846 0.000001 0.000002 0.000005 7.504710 1.174487 -63.778517 1.807876 1.477233 -64.567964 0.000001 0.000002 0.000006 8.572982 2.179091 -75.148979 -0.213937 1.007884 -57.854967 -0.000001 -0.000000 0.000003 10.030097 13.637047 -84.750237 0.877377 0.063356 -64.595449 -0.000001 -0.000000 0.000003 0.000002 -0.000000 0.000002 4.849300 7.760154 5.560451 -0.933164 -2.177053 61.845669 11.299274 18.944167 -3.987597 -0.459176 6.619807 5.830162 15.786065 -2.734251 -17.211028 -2.198321 -31.113557 7.361265 -0.000000 0.000000 0.000001 2.371627 -3.659174 8.487443 -2.138800 -2.472712 18.673647 0.000000 0.000000 0.000000 -1.976260 -5.707910 13.662370 0.283111 -5.106855 26.988065 -0.000001 0.000000 -0.000002 -3.263076 -8.562148 11.769113 4.036056 -4.063314 33.263158 -0.000001 -0.000001 -0.000004 -6.474168 -11.347978 23.260721 10.719409 -2.558797 34.822910 -0.000002 -0.000000 0.000002 0.000000 0.000000 -0.000001 -0.000000 -0.000001 -0.000000 -0.000000 0.000001 -0.000000 -0.000000 -0.000001 0.000000 -0.000000 -0.000001 0.000000 -0.000000 -0.000001 -0.000000 -0.000000 0.000001 -0.000000 -0.000000 -0.000001 0.000000 -0.000000 -0.000001 0.000000 -0.000000 -0.000001 -0.000000 -0.000000 0.000001 -0.000000 -0.000000 -0.000001 0.000000 -0.000000 -0.000001 0.000000 -0.000000 -0.000001 0.000000 
0.025306 70.271477 0.414706 3.897589 -28.800982 1.346895 -0.000000 -0.000000 0.000000 -16.304932 18.502964 9.550051 18.151897 13.128662 -0.684641 -5.192940 -3.949320 -5.294256 0.000000 0.000000 0.000000 -0.000000 0.000001 -0.000000 -5.918600 -1.891702 -9.057563 10.601050 9.459821 0.768772 -8.854256 -1.044120 7.304326 0.000000 -0.000001 -0.000000 -0.000000 0.000003 -0.000001 7.375802 -0.324658 -2.408014 1.541557 -0.960766 2.196548 1.550142 -0.640777 2.496984 -4.010575 17.908440 -6.609639 -7.322992 12.910191 0.195281 -0.000000 0.000000 -0.000000 -0.000000 0.000000 -0.000000 -0.000000 0.000000 -0.000000 -0.000000 0.000000 -0.000000 -0.000000 0.000000 -0.000000 -0.000000 0.000000 -0.000000 -0.000000 0.000000 -0.000000 -0.000000 0.000000 -0.000000 -0.000000 0.000000 -0.000000 -0.193632 -8.879108 -0.257801 -56.695628 -0.913744 -40.434665 11.526055 -64.671653 13.060645 -50.481112 11.763800 4.736346 17.540670 -5.712636 -12.934519 10.849460 26.124994 8.644694 -0.000000 0.000001 0.000001 13.991868 1.362997 -55.026050 0.369262 1.165996 -65.414190 0.000001 0.000000 -0.000000 7.472464 1.189361 -63.754987 1.806430 1.477315 -64.515856 -0.000001 -0.000002 0.000002 8.571951 2.188395 -75.087131 -0.214557 1.005998 -57.774521 -0.000002 -0.000000 -0.000001 10.015726 13.647500 -84.689312 0.875801 0.062865 -64.522161 0.000000 0.000001 0.000001 0.000002 -0.000002 -0.000002 4.731278 8.064845 5.604327 -0.763156 -1.004198 60.637135 11.318199 21.548103 -4.134033 -0.858284 7.064309 5.960962 15.406141 -1.382337 -17.328241 -2.192227 -31.139317 7.352968 -0.000001 -0.000001 0.000002 2.320007 -3.494412 7.336479 -2.153222 -2.467679 17.533470 -0.000000 0.000000 0.000000 -2.026191 -5.562433 12.498087 0.268147 -5.105208 25.821301 0.000000 -0.000000 -0.000001 -3.357514 -8.399844 10.506399 4.017391 -4.080875 31.998466 -0.000001 -0.000000 -0.000004 -6.520903 -11.200578 22.287491 10.719183 -2.558390 33.816072 -0.000001 0.000000 -0.000001 -0.000000 -0.000000 0.000002 -0.000000 -0.000002 -0.000000 0.000000 0.000000 -0.000001 -0.000000 -0.000002 0.000000 -0.000000 -0.000002 0.000000 -0.000000 -0.000002 -0.000000 0.000000 0.000000 -0.000001 -0.000000 -0.000002 0.000000 -0.000000 -0.000002 0.000000 -0.000000 -0.000002 -0.000000 0.000000 0.000000 -0.000001 -0.000000 -0.000000 0.000000 -0.000000 -0.000000 0.000000 -0.000000 -0.000000 0.000000 
0.271690 70.120483 0.700227 5.037812 -28.553485 1.552669 -0.000000 -0.000001 0.000000 -18.335653 18.108186 9.790600 20.209782 13.100184 -0.564160 -6.408747 -3.889986 -5.354192 0.000000 -0.000000 -0.000000 -0.000001 -0.000001 -0.000000 -6.989769 -1.737499 -9.041718 11.087295 9.163494 0.744330 -9.244133 -1.126511 7.624318 0.000000 -0.000001 0.000000 0.000000 -0.000002 0.000000 7.014807 -0.277279 -2.154614 1.952559 -1.040885 2.035977 1.960538 -0.686578 2.574093 -4.325442 17.869769 -6.843153 -8.322325 12.775194 0.299931 0.000000 -0.000000 0.000000 0.000000 -0.000000 0.000000 0.000000 -0.000000 0.000000 0.000000 -0.000000 0.000000 0.000000 -0.000000 0.000000 0.000000 -0.000000 0.000000 0.000000 -0.000000 0.000000 0.000000 -0.000000 0.000000 0.000000 -0.000000 0.000000 -0.303155 -9.137120 -0.458175 -58.392476 -2.183640 -39.244351 11.261438 -63.465380 12.920842 -50.785670 11.347071 4.731028 17.499438 -5.834460 -12.922565 10.925653 26.331537 8.654223 0.000003 -0.000001 -0.000001 13.896421 1.489374 -54.656260 0.363447 1.166231 -65.006783 -0.000002 0.000001 0.000002 7.357264 1.283520 -63.323408 1.793637 1.494123 -64.027443 0.000000 -0.000001 -0.000006 8.547699 2.281622 -74.465441 -0.219108 1.003507 -57.173700 -0.000000 0.000001 -0.000001 9.832944 13.778212 -83.918272 0.875045 0.072535 -63.870301 -0.000001 -0.000001 -0.000001 0.000003 0.000002 0.000000 4.636320 8.371084 5.713134 -1.058840 0.539324 59.271200 11.299990 22.868114 -4.047908 -1.283111 8.076967 6.096507 15.019712 0.009630 -17.442742 -2.187244 -31.160307 7.346182 0.000000 -0.000001 0.000001 2.280863 -3.546203 6.046132 -2.161564 -2.459935 16.234772 0.000000 -0.000001 0.000002 -2.071036 -5.807251 10.669742 0.203399 -5.106912 23.993633 0.000001 0.000000 -0.000001 -3.159193 -9.230260 7.926892 3.913676 -4.178989 29.455283 -0.000001 -0.000001 -0.000001 -5.105972 -14.272949 21.074610 10.718936 -2.557946 32.708096 0.000000 0.000001 -0.000001 0.000000 0.000000 0.000001 -0.000002 -0.000000 -0.000000 -0.000001 0.000000 -0.000000 -0.000002 -0.000000 0.000000 -0.000002 -0.000000 0.000000 -0.000002 -0.000000 -0.000000 -0.000001 0.000000 0.000000 -0.000002 -0.000000 0.000000 -0.000002 -0.000000 0.000000 -0.000002 -0.000000 -0.000000 -0.000001 0.000000 0.000000 -0.000000 -0.000001 0.000000 -0.000000 -0.000001 0.000000 -0.000000 -0.000001 0.000000 
0.623209 69.806091 0.967953 6.441932 -28.416037 2.067752 -0.000000 -0.000002 0.000000 -21.125594 17.532537 10.034495 23.469054 13.296436 -0.725721 -8.182824 -3.820909 -5.313395 -0.000000 -0.000000 -0.000000 -0.000000 0.000000 -0.000000 -9.768054 -1.313720 -9.333893 14.306865 8.925533 0.724291 -10.955252 -1.197432 7.577254 0.000000 -0.000003 0.000000 0.000000 -0.000000 0.000000 6.514518 -0.212251 -2.053578 2.486924 -1.048831 1.741573 2.493918 -0.676739 2.510766 -5.020573 17.827612 -6.898078 -9.519643 12.644522 0.495127 0.000000 -0.000000 0.000000 0.000000 -0.000000 0.000000 0.000000 -0.000000 0.000000 0.000000 -0.000000 0.000000 -0.000000 -0.000000 0.000000 0.000000 -0.000000 0.000000 -0.000000 -0.000000 0.000000 0.000000 -0.000000 0.000000 0.000000 -0.000000 0.000000 -0.030080 -9.448207 0.856508 -60.694434 -2.545105 -38.458230 11.189581 -62.249968 12.982288 -51.036826 10.696136 4.651150 17.515977 -5.785594 -12.927351 10.894652 26.247517 8.650391 -0.000000 -0.000000 -0.000001 13.867529 2.561002 -54.544043 0.357520 1.170828 -64.574938 0.000001 -0.000002 0.000001 7.127331 1.397423 -63.037797 1.781393 1.506564 -63.568291 0.000001 0.000000 0.000002 8.528159 2.329888 -74.142407 -0.221886 1.006677 -56.789806 0.000002 0.000000 -0.000002 9.806564 13.796749 -83.807514 0.874856 0.074637 -63.728035 -0.000002 -0.000001 0.000001 0.000004 -0.000001 -0.000001 4.560432 8.686623 5.891632 -1.067536 2.113458 58.038884 11.249504 24.749757 -4.075644 -1.689836 8.782699 6.202146 14.598057 1.490118 -17.553117 -2.198243 -31.113899 7.361150 -0.000000 -0.000001 0.000002 2.348065 -3.379448 5.226425 -2.145087 -2.474113 15.437197 -0.000001 0.000001 -0.000003 -2.066823 -5.504020 9.979122 0.246566 -5.106405 23.301518 -0.000000 0.000000 0.000001 -3.424428 -8.514059 7.087132 3.936623 -4.156652 28.592412 -0.000001 -0.000001 -0.000001 -5.979014 -12.115246 20.033799 10.718686 -2.557454 31.524158 -0.000001 0.000001 -0.000005 -0.000000 -0.000000 0.000001 -0.000001 0.000002 -0.000000 -0.000000 0.000002 0.000000 -0.000001 0.000002 -0.000000 -0.000001 0.000002 -0.000000 -0.000001 0.000002 -0.000000 -0.000000 0.000002 0.000000 -0.000001 0.000002 -0.000000 -0.000001 0.000002 -0.000000 -0.000001 0.000002 -0.000000 -0.000000 0.000002 0.000000 -0.000000 -0.000002 0.000000 -0.000000 -0.000002 0.000000 -0.000000 -0.000002 0.000000 
0.971066 69.203613 1.146398 7.966723 -28.216475 2.729599 0.000000 0.000001 -0.000000 -24.955715 16.703810 10.548554 28.464019 13.466988 -1.116334 -10.685263 -3.708207 -5.363402 -0.000000 0.000000 -0.000000 -0.000000 0.000000 -0.000000 -14.442619 -0.628859 -9.740718 21.087207 8.686910 0.717950 -14.784747 -1.296461 6.986797 0.000000 0.000000 0.000000 0.000001 -0.000002 -0.000000 6.219328 -0.180407 -2.091716 2.963122 -1.122919 1.482110 2.971280 -0.723338 2.488500 -5.829196 17.870131 -7.092440 -10.886768 12.541727 0.680357 0.000000 -0.000000 0.000000 0.000000 -0.000000 0.000000 0.000000 -0.000000 0.000000 0.000000 -0.000000 -0.000000 0.000000 -0.000000 -0.000000 0.000000 -0.000000 -0.000000 0.000000 -0.000000 -0.000000 0.000000 -0.000000 0.000000 0.000000 -0.000000 0.000000 0.389520 -9.414063 2.759443 -63.420185 -2.724736 -37.909930 10.944096 -60.778124 12.890190 -51.331976 10.172818 4.737358 17.528321 -5.749123 -12.930943 10.865296 26.167971 8.646679 -0.000002 0.000001 0.000001 13.798733 2.672950 -54.292214 0.353492 1.170951 -64.286820 0.000002 0.000000 0.000002 7.136270 1.406018 -62.931997 1.779094 1.509079 -63.480816 -0.000001 -0.000001 0.000001 8.546871 2.284713 -74.444609 -0.219375 1.003327 -57.136926 0.000001 -0.000001 0.000003 9.992641 13.664197 -84.591531 0.875771 0.063473 -64.480824 -0.000001 -0.000001 0.000003 -0.000001 0.000003 0.000000 4.509800 8.959001 6.066436 -0.713767 3.410720 56.662857 11.596254 27.592393 -4.433358 -2.068424 9.071690 6.535228 14.152907 3.015684 -17.653399 -2.198215 -31.113909 7.361171 0.000000 -0.000001 0.000000 2.437196 -2.923147 4.635750 -2.115025 -2.499754 14.898775 -0.000001 0.000001 0.000000 -1.972874 -5.399664 9.620601 0.323880 -5.099285 22.945211 -0.000000 0.000000 -0.000001 -3.239584 -8.724935 6.626940 3.991706 -4.103221 28.128169 0.000000 -0.000000 -0.000002 -5.503702 -12.543193 18.830219 10.718419 -2.556942 30.289690 -0.000000 0.000001 0.000001 -0.000000 -0.000000 -0.000001 0.000001 -0.000002 -0.000000 0.000001 -0.000000 -0.000000 0.000001 -0.000002 -0.000000 0.000001 -0.000002 -0.000000 0.000001 -0.000002 -0.000000 0.000001 -0.000000 -0.000000 0.000001 -0.000002 -0.000000 0.000001 -0.000002 -0.000000 0.000001 -0.000002 -0.000000 0.000001 -0.000000 -0.000000 0.000000 0.000001 -0.000000 0.000000 0.000001 -0.000000 0.000000 0.000001 -0.000000 
